<svg xmlns="http://www.w3.org/2000/svg" width="380" height="55" viewBox="0 0 380 55" fill="none">
<path d="M240.871 4.02756H231.463V13.7283H222.209V21.7618H231.463V42.2894C231.463 50.3878 235.169 53.874 244.358 53.874H252.077V45.2343H245.103C241.77 45.2343 240.849 44.4764 240.849 41.8346V21.7618H253.809V13.7283H240.849V4.02756H240.871ZM207.824 35.5335C207.824 41.9646 203.043 46.5118 196.311 46.5118C189.578 46.5118 185.324 42.5059 185.324 35.5335V13.7283H175.916V37.0492C175.916 48.2658 182.736 55 193.877 55C199.863 55 204.644 53.1161 207.977 49.6949H208.131V53.874H217.231V13.7283H207.824V35.5335ZM325.847 12.5807C320.386 12.5807 315.233 14.5512 311.988 17.8858H311.834V13.7283H302.733V53.874H312.141V31.9823C312.141 25.3996 317.075 21.0039 324.334 21.0039C331.592 21.0039 335.627 25.1614 335.627 31.9173V53.874H345.035V30.4665C345.035 19.8563 337.316 12.6024 325.869 12.6024M379.31 13.7067H366.35V4.02756H356.943V13.7283H347.688V21.7618H356.943V42.2894C356.943 50.3878 360.649 53.874 369.837 53.874H377.578V45.2343H370.604C367.271 45.2343 366.35 44.4764 366.35 41.8346V21.7618H379.31V13.7067ZM136.575 39.8425L116.729 0.844488H104.91V53.874H114.69V15.7638H114.844L134.689 53.8524H138.637L158.483 15.7638H158.636V53.8524H168.417V0.844488H156.597L136.751 39.8425H136.575ZM286.44 39.2362C286.44 43.4803 280.98 47.0315 274.16 47.0315C269.072 47.0315 266.726 45.6673 266.726 42.5709C266.726 39.4744 269.532 38.1102 276.879 36.811C282.865 35.6634 285.278 34.8405 286.286 33.1083H286.44V39.2362ZM277.274 12.5807C267.12 12.5807 259.006 18.189 257.493 26.5256L266.44 28.4095C267.581 23.4941 271.747 20.376 277.493 20.376C282.427 20.376 285.607 22.2598 285.607 25.378C285.607 27.8032 283.26 28.9291 275.453 30.0768C262.712 31.9606 257.8 35.75 257.8 43.1122C257.8 50.4744 263.721 55 272.734 55C278.874 55 284.247 52.813 286.747 49.2402H286.9V53.8524H295.475V27.3484C295.475 18.2539 288.435 12.5807 277.295 12.5807" fill="#e4e8e6"/>
<path d="M9.78045 37.3524V17.1063L26.9511 27.2185L9.78045 37.3307V37.3524ZM36.5999 21.5453L0 0V54.437L63.3975 17.1063V53.874H73.1779V0L36.578 21.5453H36.5999Z" fill="#e4e8e6"/>
</svg>
