<svg width="105" height="32" viewBox="0 0 105 32" fill="none" xmlns="http://www.w3.org/2000/svg">
<path d="M25.635 0.0796262L3.45185 4.27594C1.57364 4.63416 0 6.52762 0 8.7793V22.9547C0 25.2575 1.57364 27.0998 3.45185 27.458L25.6858 31.9102C28.4777 32.4731 30.8128 30.3238 30.8128 27.3045V4.89003C30.762 1.56369 28.4777 -0.432119 25.635 0.0796262Z" fill="#00dd88"/>
<path fill-rule="evenodd" clip-rule="evenodd" d="M6.24451 20.7545C7.36129 20.7545 8.27501 20.2427 8.93493 19.4751L9.13797 20.5498H11.0669V7.70496H8.68111V12.106C8.0212 11.4919 7.209 11.1337 6.24451 11.1337C3.80792 11.1337 1.98047 13.1295 1.98047 15.9441C1.98047 18.7587 3.75715 20.7545 6.24451 20.7545ZM6.4989 18.6565C5.22984 18.6565 4.36688 17.5818 4.36688 15.9442C4.36688 14.3066 5.22984 13.232 6.4989 13.232C7.86949 13.232 8.63093 14.3066 8.63093 15.9442C8.63093 17.5818 7.92025 18.6565 6.4989 18.6565Z" fill="#1a1a1a"/>
<path fill-rule="evenodd" clip-rule="evenodd" d="M12.5906 15.944C12.5906 18.7586 14.6211 20.7544 17.3115 20.7544C19.2405 20.7544 20.4588 19.9356 21.3217 18.2468L19.4435 17.2745C18.8851 18.2468 18.0222 18.6562 17.2607 18.6562C15.9917 18.7074 15.1795 17.9398 14.9764 16.7627H21.3725C21.474 16.4045 21.474 15.944 21.474 15.5857C21.474 13.027 19.9004 11.1335 17.1084 11.1335C14.418 11.1335 12.5906 13.027 12.5906 15.944ZM19.0888 14.8695H15.0786C15.2816 13.6925 15.9415 12.976 17.1091 12.976C18.2766 12.976 18.9873 13.6925 19.0888 14.8695Z" fill="#1a1a1a"/>
<path d="M22.3866 13.8969C22.3866 12.3105 23.6557 11.0311 25.8385 11.0311C27.3106 11.0311 28.4273 11.7476 29.0365 12.6175L27.5644 13.9481C27.2598 13.4875 26.5999 13.0269 25.6862 13.0269C24.9755 13.0269 24.4679 13.334 24.4679 13.8969C24.4679 14.3575 24.6709 14.6645 26.0415 15.0227C27.9197 15.4833 29.0873 16.1486 29.0873 17.8885C29.0873 19.6285 27.5644 20.7543 25.5846 20.7543C24.1125 20.7543 22.9958 20.089 22.082 18.7585L23.5541 17.5303C24.4171 18.5538 24.9755 18.8097 25.8385 18.8097C26.4476 18.8097 26.9045 18.5026 26.9045 17.9909C26.9045 17.3768 26.2953 17.0697 24.7217 16.7115C23.3003 16.3533 22.3866 15.5857 22.3866 13.8969Z" fill="#1a1a1a"/>
<path d="M36.8032 20.7534C34.062 20.7534 32.1331 18.7576 32.1331 15.943C32.1331 13.1284 34.062 11.1326 36.8032 11.1326C38.6814 11.1326 40.1535 11.849 41.0672 13.5889L39.0875 14.6124C38.4784 13.5889 37.8185 13.2307 36.854 13.2307C35.4326 13.2307 34.5697 14.3054 34.5697 15.943C34.5697 17.5806 35.4326 18.6552 36.854 18.6552C37.8185 18.6552 38.4784 18.297 39.0875 17.2735L41.0672 18.297C40.2043 20.0369 38.7322 20.7534 36.8032 20.7534Z" fill="#e4e8e6"/>
<path fill-rule="evenodd" clip-rule="evenodd" d="M46.3969 20.7534C49.1889 20.7534 51.1178 18.7576 51.1178 15.943C51.1178 13.1284 49.1889 11.1326 46.3969 11.1326C43.605 11.1326 41.676 13.1284 41.676 15.943C41.676 18.7576 43.605 20.7534 46.3969 20.7534ZM46.3473 13.2311C47.8194 13.2311 48.6824 14.3569 48.6824 15.9433C48.6824 17.5297 47.8194 18.6044 46.3473 18.6556C44.8752 18.6556 44.0122 17.5809 44.0122 15.9433C44.0122 14.3569 44.9259 13.2311 46.3473 13.2311Z" fill="#e4e8e6"/>
<path d="M55.0267 14.1004V20.5483H52.6409V11.3369H54.5698L54.7221 12.2069C55.4836 11.4905 56.5496 11.0811 57.6156 11.0811C59.0369 11.0811 59.7984 11.5928 60.2045 12.3604C61.0167 11.4905 62.1334 11.0811 63.301 11.0811C65.9914 11.0811 66.3467 12.9745 66.3467 14.868V20.4972H63.9609V14.8168C63.9609 13.5374 63.6056 13.1792 62.6918 13.1792C61.9304 13.1792 61.169 13.5374 60.6106 14.1004C60.6106 14.3562 60.6106 14.6121 60.6106 14.868V20.4972H58.2247V14.8168C58.2247 13.5374 57.8694 13.1792 56.9557 13.1792C56.3465 13.1792 55.5851 13.5886 55.0267 14.1004Z" fill="#e4e8e6"/>
<path fill-rule="evenodd" clip-rule="evenodd" d="M70.8123 23.7212V19.7807C71.4723 20.3948 72.2845 20.753 73.2489 20.7019C75.6855 20.7019 77.513 18.7061 77.513 15.8915C77.513 13.0769 75.7363 11.0811 73.2489 11.0811C72.1322 11.0811 71.2184 11.5928 70.5585 12.3604L70.3555 11.3369H68.4265V23.7212H70.8123ZM72.9954 13.2306C74.2645 13.2306 75.1274 14.3053 75.1274 15.9429C75.1274 17.5805 74.2645 18.604 72.9954 18.6552C71.6248 18.6552 70.8634 17.5805 70.8634 15.9429C70.8634 14.3053 71.5741 13.2306 72.9954 13.2306Z" fill="#e4e8e6"/>
<path d="M81.9834 20.5483C81.7804 20.5483 81.5773 20.5995 81.3235 20.5995C79.6991 20.5995 78.7346 19.7295 78.7346 17.7849V7.65234H81.1205V17.2732C81.1205 18.0408 81.3743 18.2967 82.0342 18.2967L81.9834 20.5483Z" fill="#e4e8e6"/>
<path fill-rule="evenodd" clip-rule="evenodd" d="M86.0925 8.52254C86.0925 7.65257 85.4834 6.9873 84.6204 6.9873C83.8082 6.9873 83.0976 7.65257 83.1483 8.52254C83.1483 9.34133 83.8082 10.0066 84.6204 10.0066C85.4326 10.0066 86.0925 9.34133 86.0925 8.52254ZM83.4543 11.2857V20.4971H85.8401V11.2857H83.4543Z" fill="#e4e8e6"/>
<path d="M92.0329 20.7534C89.2918 20.7534 87.3628 18.7576 87.3628 15.943C87.3628 13.1284 89.2918 11.1326 92.0329 11.1326C93.9111 11.1326 95.3833 11.849 96.297 13.5889L94.3172 14.6124C93.7081 13.5889 93.0482 13.2307 92.0837 13.2307C90.6624 13.2307 89.7994 14.3054 89.7994 15.943C89.7994 17.5806 90.6624 18.6552 92.0837 18.6552C93.0482 18.6552 93.7081 18.297 94.3172 17.2735L96.297 18.297C95.3833 20.0369 93.9111 20.7534 92.0329 20.7534Z" fill="#e4e8e6"/>
<path fill-rule="evenodd" clip-rule="evenodd" d="M100.307 20.8046C101.323 20.8046 102.287 20.3952 102.947 19.7299L102.998 20.4975H104.876V14.766C104.876 12.4631 103.607 11.0814 101.17 11.0814C99.7997 11.0814 98.7844 11.3885 97.6169 12.0026L98.2768 13.7425C99.2413 13.2308 100.104 13.0772 100.764 13.0772C101.779 13.0772 102.49 13.589 102.49 14.3566V15.3289C102.033 14.9195 101.373 14.5613 100.409 14.5613C98.4799 14.5613 96.8555 15.7383 96.8555 17.6829C96.8555 19.474 98.4799 20.8046 100.307 20.8046ZM102.338 17.6317C102.287 18.3993 101.729 18.8599 100.866 18.8599C100.003 18.8599 99.2922 18.3993 99.2922 17.6317C99.2922 16.9153 100.003 16.4035 100.866 16.4035C101.78 16.4035 102.338 16.9153 102.338 17.6317Z" fill="#e4e8e6"/>
</svg>
