<svg xmlns="http://www.w3.org/2000/svg" viewBox="0 0 400 300">
  <rect width="400" height="300" fill="#0a0a0a"/>

  <!-- Pix title -->
  <text x="200" y="36" font-family="sans-serif" font-size="22" font-weight="bold" fill="#00b3f0" text-anchor="middle">QRCode Pix</text>

  <!-- QR white background -->
  <rect x="115" y="52" width="170" height="170" rx="8" fill="#ffffff"/>

  <!-- Finder pattern top-left -->
  <rect x="124" y="61" width="38" height="38" rx="3" fill="#000"/>
  <rect x="129" y="66" width="28" height="28" rx="2" fill="#fff"/>
  <rect x="134" y="71" width="18" height="18" rx="1" fill="#000"/>

  <!-- Finder pattern top-right -->
  <rect x="238" y="61" width="38" height="38" rx="3" fill="#000"/>
  <rect x="243" y="66" width="28" height="28" rx="2" fill="#fff"/>
  <rect x="248" y="71" width="18" height="18" rx="1" fill="#000"/>

  <!-- Finder pattern bottom-left -->
  <rect x="124" y="175" width="38" height="38" rx="3" fill="#000"/>
  <rect x="129" y="180" width="28" height="28" rx="2" fill="#fff"/>
  <rect x="134" y="185" width="18" height="18" rx="1" fill="#000"/>

  <!-- Data modules (simplified dot pattern) -->
  <rect x="174" y="61" width="6" height="6" fill="#000"/>
  <rect x="184" y="61" width="6" height="6" fill="#000"/>
  <rect x="194" y="61" width="6" height="6" fill="#000"/>
  <rect x="214" y="61" width="6" height="6" fill="#000"/>
  <rect x="224" y="61" width="6" height="6" fill="#000"/>

  <rect x="174" y="71" width="6" height="6" fill="#000"/>
  <rect x="194" y="71" width="6" height="6" fill="#000"/>
  <rect x="214" y="71" width="6" height="6" fill="#000"/>

  <rect x="174" y="81" width="6" height="6" fill="#000"/>
  <rect x="184" y="81" width="6" height="6" fill="#000"/>
  <rect x="204" y="81" width="6" height="6" fill="#000"/>
  <rect x="224" y="81" width="6" height="6" fill="#000"/>

  <rect x="174" y="111" width="6" height="6" fill="#000"/>
  <rect x="184" y="111" width="6" height="6" fill="#000"/>
  <rect x="194" y="111" width="6" height="6" fill="#000"/>
  <rect x="204" y="111" width="6" height="6" fill="#000"/>
  <rect x="214" y="111" width="6" height="6" fill="#000"/>
  <rect x="224" y="111" width="6" height="6" fill="#000"/>

  <rect x="174" y="121" width="6" height="6" fill="#000"/>
  <rect x="194" y="121" width="6" height="6" fill="#000"/>
  <rect x="214" y="121" width="6" height="6" fill="#000"/>

  <rect x="174" y="131" width="6" height="6" fill="#000"/>
  <rect x="184" y="131" width="6" height="6" fill="#000"/>
  <rect x="204" y="131" width="6" height="6" fill="#000"/>
  <rect x="224" y="131" width="6" height="6" fill="#000"/>

  <rect x="174" y="141" width="6" height="6" fill="#000"/>
  <rect x="194" y="141" width="6" height="6" fill="#000"/>
  <rect x="214" y="141" width="6" height="6" fill="#000"/>
  <rect x="224" y="141" width="6" height="6" fill="#000"/>

  <rect x="174" y="151" width="6" height="6" fill="#000"/>
  <rect x="184" y="151" width="6" height="6" fill="#000"/>
  <rect x="204" y="151" width="6" height="6" fill="#000"/>

  <rect x="174" y="161" width="6" height="6" fill="#000"/>
  <rect x="194" y="161" width="6" height="6" fill="#000"/>
  <rect x="204" y="161" width="6" height="6" fill="#000"/>
  <rect x="214" y="161" width="6" height="6" fill="#000"/>

  <rect x="238" y="111" width="6" height="6" fill="#000"/>
  <rect x="248" y="111" width="6" height="6" fill="#000"/>
  <rect x="258" y="111" width="6" height="6" fill="#000"/>
  <rect x="238" y="121" width="6" height="6" fill="#000"/>
  <rect x="258" y="121" width="6" height="6" fill="#000"/>
  <rect x="248" y="131" width="6" height="6" fill="#000"/>
  <rect x="258" y="131" width="6" height="6" fill="#000"/>
  <rect x="238" y="141" width="6" height="6" fill="#000"/>
  <rect x="248" y="141" width="6" height="6" fill="#000"/>
  <rect x="238" y="151" width="6" height="6" fill="#000"/>
  <rect x="258" y="161" width="6" height="6" fill="#000"/>

  <!-- Bottom rows -->
  <rect x="174" y="175" width="6" height="6" fill="#000"/>
  <rect x="184" y="175" width="6" height="6" fill="#000"/>
  <rect x="194" y="175" width="6" height="6" fill="#000"/>
  <rect x="214" y="175" width="6" height="6" fill="#000"/>
  <rect x="238" y="175" width="6" height="6" fill="#000"/>
  <rect x="258" y="175" width="6" height="6" fill="#000"/>

  <rect x="174" y="185" width="6" height="6" fill="#000"/>
  <rect x="194" y="185" width="6" height="6" fill="#000"/>
  <rect x="204" y="185" width="6" height="6" fill="#000"/>
  <rect x="248" y="185" width="6" height="6" fill="#000"/>

  <rect x="174" y="195" width="6" height="6" fill="#000"/>
  <rect x="184" y="195" width="6" height="6" fill="#000"/>
  <rect x="204" y="195" width="6" height="6" fill="#000"/>
  <rect x="214" y="195" width="6" height="6" fill="#000"/>
  <rect x="238" y="195" width="6" height="6" fill="#000"/>
  <rect x="258" y="195" width="6" height="6" fill="#000"/>

  <!-- Pix key type pills -->
  <rect x="50" y="242" width="44" height="20" rx="10" fill="#0a2040" stroke="#00b3f0" stroke-width="1"/>
  <text x="72" y="256" font-family="sans-serif" font-size="9" fill="#00b3f0" text-anchor="middle">CPF</text>
  <rect x="102" y="242" width="52" height="20" rx="10" fill="#0a2040" stroke="#00b3f0" stroke-width="1"/>
  <text x="128" y="256" font-family="sans-serif" font-size="9" fill="#00b3f0" text-anchor="middle">CNPJ</text>
  <rect x="162" y="242" width="52" height="20" rx="10" fill="#0a2040" stroke="#00b3f0" stroke-width="1"/>
  <text x="188" y="256" font-family="sans-serif" font-size="9" fill="#00b3f0" text-anchor="middle">Email</text>
  <rect x="222" y="242" width="52" height="20" rx="10" fill="#0a2040" stroke="#00b3f0" stroke-width="1"/>
  <text x="248" y="256" font-family="sans-serif" font-size="9" fill="#00b3f0" text-anchor="middle">Telefone</text>
  <rect x="282" y="242" width="68" height="20" rx="10" fill="#0a2040" stroke="#00b3f0" stroke-width="1"/>
  <text x="316" y="256" font-family="sans-serif" font-size="9" fill="#00b3f0" text-anchor="middle">Aleatória</text>

  <text x="200" y="285" font-family="monospace" font-size="9" fill="#333" text-anchor="middle">JavaScript · Web API · Canvas</text>
</svg>
